/* XPM */
static char *cbla1_l2zjt[] = {
/* columns rows colors chars-per-pixel */
"16 16 192 2 ",
"   c None",
".  c #5B1E04",
"X  c #671706",
"o  c #691F08",
"O  c #771A00",
"+  c #6B1B1A",
"@  c #751B17",
"#  c #5E2418",
"$  c #6F3908",
"%  c #713700",
"&  c #7A360A",
"*  c #7C2515",
"=  c #663810",
"-  c #6D3018",
";  c #5E2C26",
":  c #4A3F23",
">  c #4B3D2E",
",  c #4F2736",
"<  c #682A23",
"1  c #6E362C",
"2  c #6D392C",
"3  c #743625",
"4  c #7C3C24",
"5  c #763432",
"6  c #386E1E",
"7  c #276625",
"8  c #5E530E",
"9  c #78441A",
"0  c #665D1D",
"q  c #486A11",
"w  c #6C650D",
"e  c #695E2B",
"r  c #605634",
"t  c #635E3B",
"y  c #74693F",
"u  c #7E763E",
"i  c #182B6D",
"p  c #1C3477",
"a  c #404D59",
"s  c #4A637A",
"d  c #821000",
"f  c #931500",
"g  c #9D1100",
"h  c #AA1B00",
"j  c #BE1700",
"k  c #872C07",
"l  c #9E3300",
"z  c #943A02",
"x  c #9B3D0D",
"c  c #862D1D",
"v  c #8A3015",
"b  c #8D3516",
"n  c #883915",
"m  c #8B371D",
"M  c #9B3916",
"N  c #923C1D",
"B  c #AA2904",
"V  c #AF3800",
"C  c #AE3D01",
"Z  c #A3390D",
"A  c #B83011",
"S  c #892220",
"D  c #A73520",
"F  c #C62C00",
"G  c #D03800",
"H  c #8F4F09",
"J  c #9E5519",
"K  c #A44D0B",
"L  c #B54701",
"P  c #B4450D",
"I  c #BB4E0D",
"U  c #A8530C",
"Y  c #B55605",
"T  c #BC5D07",
"R  c #BE5009",
"E  c #B75E0C",
"W  c #BE5B12",
"Q  c #BB5E18",
"!  c #826F08",
"~  c #96620C",
"^  c #917609",
"/  c #857517",
"(  c #8B7919",
")  c #B36A07",
"_  c #B17008",
"`  c #B46412",
"'  c #BF6713",
"]  c #BE6C1D",
"[  c #975021",
"{  c #A74527",
"}  c #A15623",
"|  c #846B3F",
" . c #876A3F",
".. c #BC7A33",
"X. c #C34600",
"o. c #C55202",
"O. c #DF5300",
"+. c #C34B15",
"@. c #C44A17",
"#. c #CB5A10",
"$. c #FC5C00",
"%. c #C8620A",
"&. c #D1600C",
"*. c #CC7307",
"=. c #C7730B",
"-. c #CE750A",
";. c #C66212",
":. c #C46810",
">. c #C26F13",
",. c #C86E17",
"<. c #CF7619",
"1. c #D67416",
"2. c #DA7214",
"3. c #D37A16",
"4. c #D0701D",
"5. c #D17C1D",
"6. c #FF6000",
"7. c #FF6400",
"8. c #FE6600",
"9. c #FE6C00",
"0. c #FB7201",
"q. c #D57727",
"w. c #D97A27",
"e. c #865542",
"r. c #815841",
"t. c #85775B",
"y. c #498527",
"u. c #FF8200",
"i. c #FF8303",
"p. c #FF8B01",
"a. c #FF9100",
"s. c #DBA01C",
"d. c #C7812F",
"f. c #DC972C",
"g. c #CB8334",
"h. c #CE8933",
"j. c #C1843F",
"k. c #CD8E3C",
"l. c #D98F33",
"z. c #DB8C35",
"x. c #D69431",
"c. c #DD9037",
"v. c #DD9D39",
"b. c #E38F20",
"n. c #E28B25",
"m. c #E38E25",
"M. c #E59B2F",
"N. c #E69731",
"B. c #E0993D",
"V. c #DAA035",
"C. c #DCB03F",
"Z. c #E1A73B",
"A. c #E6A93E",
"S. c #AF8249",
"D. c #B2804F",
"F. c #A0B552",
"G. c #AEA867",
"H. c #C79347",
"J. c #DF9445",
"K. c #D19C47",
"L. c #DB9846",
"P. c #DF974A",
"I. c #D19553",
"U. c #DFAA41",
"Y. c #DAB245",
"T. c #D9B945",
"R. c #DBBE49",
"E. c #DEA955",
"W. c #E1A145",
"Q. c #E8AC45",
"!. c #E1AF4D",
"~. c #E4BF4C",
"^. c #E1A253",
"/. c #E6A556",
"(. c #E3AA57",
"). c #E4B555",
"_. c #E5BF52",
"`. c #E4B35B",
"'. c #E7AF71",
"]. c #E6B571",
"[. c #B8C34F",
"{. c #DEC458",
"}. c #E7C553",
"|. c #E3C057",
" X c #E1C558",
".X c #ECD959",
"XX c #E9E054",
"oX c #F3E65C",
"OX c #F3F45F",
"+X c #C3C471",
"@X c #E8CC71",
"#X c #E8D479",
/* pixels */
"            S.|  .D.            ",
"        r.2 + * v @ 1 e.        ",
"    +X; 4 S K T V x c 3 # G.    ",
"    = O f ] ' -.R Y l d X .     ",
"  % z ^.D *.s.%.o.=.C { I.k $   ",
"  & O.oXXX;.Z.1.&.5.I OX.XG o   ",
"u J i.E C.).(.n.2.l.!.Y.U 7.M t.",
"e ) p.K.@XA.`.M.m.c.v.#XH.8.W t ",
"0 _ a.>._.Q.].N.b.P.W.|.` 9.Q r ",
"w ~ u.g.T.f.'./.B.J.x.R...6.N y ",
"  8 0.L  XV.z.E.L.4.U.{.l $.,   ",
"  q H F k.~.,.#.X.:.}.j.h m a   ",
"    6 b j P d.<.3.h.Z g n i     ",
"    [.7 9 A @.q.w.+.B 5 p F.    ",
"        y.: < [ } - > s         ",
"            ! / ( ^             "
};
