/* XPM */
static char * E:\lusocoin\pixmaps\luso16_xpm[] = {
"16 16 205 2",
"  	c None",
". 	c #FCE2B0",
"+ 	c #FACD79",
"@ 	c #FCC55B",
"# 	c #F9BF4F",
"$ 	c #F7BC4E",
"% 	c #FABC46",
"& 	c #FDE6BC",
"* 	c #F6BF58",
"= 	c #EFAA25",
"- 	c #E19A15",
"; 	c #DA900C",
"> 	c #D78B09",
", 	c #E19409",
"' 	c #EEA10D",
") 	c #F0A314",
"! 	c #DB9209",
"~ 	c #FBDBA0",
"{ 	c #F2AF2F",
"] 	c #DC9614",
"^ 	c #A06206",
"/ 	c #7E3F00",
"( 	c #6F3200",
"_ 	c #6C3D01",
": 	c #7D4400",
"< 	c #A45C00",
"[ 	c #D18805",
"} 	c #DB940D",
"| 	c #B17505",
"1 	c #FCDDA2",
"2 	c #F1AD2E",
"3 	c #CC8A11",
"4 	c #893D00",
"5 	c #AF2A0B",
"6 	c #BF3014",
"7 	c #A53A0B",
"8 	c #94592D",
"9 	c #8F6937",
"0 	c #6E4A05",
"a 	c #873E00",
"b 	c #B97704",
"c 	c #C4850E",
"d 	c #7A5102",
"e 	c #F7BA48",
"f 	c #E19812",
"g 	c #7A3700",
"h 	c #6F5210",
"i 	c #A66E2D",
"j 	c #DB431B",
"k 	c #E03516",
"l 	c #C83B1D",
"m 	c #BF4823",
"n 	c #925032",
"o 	c #835630",
"p 	c #9D5905",
"q 	c #B97906",
"r 	c #9D6906",
"s 	c #FAC96C",
"t 	c #EFA81F",
"u 	c #A16104",
"v 	c #8E2902",
"w 	c #8A631B",
"x 	c #5BC02D",
"y 	c #975303",
"z 	c #CA3113",
"A 	c #892C01",
"B 	c #7C4224",
"C 	c #83554E",
"D 	c #CC9B82",
"E 	c #B27A43",
"F 	c #AD6A00",
"G 	c #A6710C",
"H 	c #4B3202",
"I 	c #F7B73E",
"J 	c #E19912",
"K 	c #7E4203",
"L 	c #934E22",
"M 	c #D9421A",
"N 	c #B49A0C",
"O 	c #AD7201",
"P 	c #822607",
"Q 	c #712D03",
"R 	c #8B4105",
"S 	c #9F5100",
"T 	c #88686C",
"U 	c #7B5F77",
"V 	c #B87403",
"W 	c #A56F0A",
"X 	c #5D3E05",
"Y 	c #F5AD22",
"Z 	c #D48B09",
"` 	c #814004",
" .	c #B16726",
"..	c #D56418",
"+.	c #8B3601",
"@.	c #966001",
"#.	c #7F600C",
"$.	c #ACAA0F",
"%.	c #C3B719",
"&.	c #8F9629",
"*.	c #C48007",
"=.	c #A5700C",
"-.	c #5F4005",
";.	c #F2A30D",
">.	c #D38A07",
",.	c #844300",
"'.	c #C84A0C",
").	c #E6491B",
"!.	c #D83E14",
"~.	c #973604",
"{.	c #A1540B",
"].	c #A86E04",
"^.	c #DEC105",
"/.	c #BAF115",
"(.	c #BBA617",
"_.	c #A26A0D",
":.	c #543804",
"<.	c #D99009",
"[.	c #D6900C",
"}.	c #9A5900",
"|.	c #C15315",
"1.	c #A96133",
"2.	c #8E4D09",
"3.	c #865E19",
"4.	c #7F5F11",
"5.	c #876A03",
"6.	c #BB5F0B",
"7.	c #DD5414",
"8.	c #95CC1B",
"9.	c #DEB41A",
"0.	c #D6961C",
"a.	c #8A600F",
"b.	c #422C04",
"c.	c #A96F03",
"d.	c #D7910C",
"e.	c #B26F00",
"f.	c #CB7D0E",
"g.	c #E4A420",
"h.	c #957117",
"i.	c #745F22",
"j.	c #9B6A08",
"k.	c #96B716",
"l.	c #B78206",
"m.	c #D27215",
"n.	c #8F9D17",
"o.	c #C6A213",
"p.	c #CE8E1F",
"q.	c #664609",
"r.	c #2A1C01",
"s.	c #B67A09",
"t.	c #BF7E07",
"u.	c #C28800",
"v.	c #E5C902",
"w.	c #C4D013",
"x.	c #9EC41C",
"y.	c #AA783D",
"z.	c #BC9C40",
"A.	c #EF7614",
"B.	c #B27318",
"C.	c #9B7705",
"D.	c #E8A81E",
"E.	c #8A6315",
"F.	c #462F06",
"G.	c #5D3D02",
"H.	c #B57908",
"I.	c #B77803",
"J.	c #CC7D00",
"K.	c #B0A50E",
"L.	c #C9EE15",
"M.	c #AD9B46",
"N.	c #B07D30",
"O.	c #EB6914",
"P.	c #9C6210",
"Q.	c #C59623",
"R.	c #A1751C",
"S.	c #4F3505",
"T.	c #221701",
"U.	c #5C3D02",
"V.	c #99680E",
"W.	c #A97206",
"X.	c #CD8601",
"Y.	c #D4A30B",
"Z.	c #C9B110",
"`.	c #DE9E0D",
" +	c #DC9D19",
".+	c #C89523",
"++	c #896114",
"@+	c #4C3202",
"#+	c #271A02",
"$+	c #412B02",
"%+	c #724C08",
"&+	c #80570A",
"*+	c #8F5E08",
"=+	c #98630A",
"-+	c #916511",
";+	c #7B560E",
">+	c #583B06",
",+	c #3C2802",
"'+	c #1F1501",
")+	c #352302",
"!+	c #452E03",
"~+	c #462E03",
"{+	c #3F2A05",
"]+	c #332303",
"^+	c #231702",
"          . + @ # $ %           ",
"      & * = - ; > , ' ) !       ",
"    ~ { ] ^ / ( _ : < [ } |     ",
"  1 2 3 4 5 6 7 8 9 0 a b c d   ",
"  e f g h i j k l m n o p q r   ",
"s t u v w x y z A B C D E F G H ",
"I J K L M N O P Q R S T U V W X ",
"Y Z `  ...+.@.    #.$.%.&.*.=.-.",
";.>.,.'.).!.~.    {.].^./.(._.:.",
"<.[.}.|.1.2.3.4.5.6.7.8.9.0.a.b.",
"c.d.e.f.g.h.i.j.k.l.m.n.o.p.q.r.",
"  s.t.u.v.w.x.y.z.A.B.C.D.E.F.  ",
"  G.H.I.J.K.L.M.N.O.P.Q.R.S.T.  ",
"    U.V.W.X.Y.Z.`. +.+++@+#+    ",
"      $+%+&+*+=+-+;+>+,+'+      ",
"          )+!+~+{+]+^+          "};
