/* XPM */
static char * E:\lusocoin\pixmaps\luso32_xpm[] = {
"32 32 727 2",
"  	c None",
". 	c #FEE8BF",
"+ 	c #FEDFA3",
"@ 	c #FDD68C",
"# 	c #FDD17D",
"$ 	c #FDCF79",
"% 	c #FED07A",
"& 	c #FECF77",
"* 	c #FFEDCD",
"= 	c #FDD58B",
"- 	c #F9BF52",
"; 	c #F4B02F",
"> 	c #EEA722",
", 	c #F6A91B",
"' 	c #EDA419",
") 	c #E9A119",
"! 	c #EDA316",
"~ 	c #EEA51D",
"{ 	c #F5AE2A",
"] 	c #FBB739",
"^ 	c #FBB93B",
"/ 	c #FFF2D8",
"( 	c #FCD07F",
"_ 	c #F1AF33",
": 	c #EAA31E",
"< 	c #E2A025",
"[ 	c #E5A328",
"} 	c #EAA727",
"| 	c #FEB11E",
"1 	c #F8AD1C",
"2 	c #F1A81B",
"3 	c #E9A21B",
"4 	c #E49D18",
"5 	c #E49A11",
"6 	c #E79A0A",
"7 	c #F2A20C",
"8 	c #F6AA1B",
"9 	c #ECA113",
"0 	c #FFE4B3",
"a 	c #F8B840",
"b 	c #ECA51E",
"c 	c #E2A128",
"d 	c #ECAA2B",
"e 	c #F3AC23",
"f 	c #E59E16",
"g 	c #D08A0D",
"h 	c #C07C07",
"i 	c #BA7605",
"j 	c #C27C05",
"k 	c #CF8706",
"l 	c #E49806",
"m 	c #F3A307",
"n 	c #EB9E0C",
"o 	c #DE9610",
"p 	c #DC920A",
"q 	c #E99C0C",
"r 	c #DE960E",
"s 	c #FEDA97",
"t 	c #EEAA2A",
"u 	c #E5A225",
"v 	c #EEAB2D",
"w 	c #F2AB21",
"x 	c #CB860C",
"y 	c #985801",
"z 	c #793B00",
"A 	c #6F3000",
"B 	c #6A2A00",
"C 	c #6B2A00",
"D 	c #702900",
"E 	c #742F00",
"F 	c #7A3900",
"G 	c #945400",
"H 	c #C47D00",
"I 	c #E59905",
"J 	c #E0960D",
"K 	c #DA9007",
"L 	c #D99009",
"M 	c #D08A08",
"N 	c #FED892",
"O 	c #EEA723",
"P 	c #E4A329",
"Q 	c #F2AD2B",
"R 	c #DD9712",
"S 	c #915200",
"T 	c #682D00",
"U 	c #6B2E00",
"V 	c #713100",
"W 	c #703000",
"X 	c #722E00",
"Y 	c #763601",
"Z 	c #6F520B",
"` 	c #654C0A",
" .	c #744405",
"..	c #792F00",
"+.	c #8E4F00",
"@.	c #CC8500",
"#.	c #DE9304",
"$.	c #C08518",
"%.	c #CC890C",
"&.	c #BE7D04",
"*.	c #FDDDA0",
"=.	c #EFA928",
"-.	c #DE9E28",
";.	c #F5AF28",
">.	c #CB860A",
",.	c #763900",
"'.	c #6E3000",
").	c #984005",
"!.	c #BC400F",
"~.	c #C33E11",
"{.	c #BC3C10",
"].	c #8D3604",
"^.	c #795D17",
"/.	c #555D26",
"(.	c #945937",
"_.	c #806425",
":.	c #5E6614",
"<.	c #833D00",
"[.	c #7A3500",
"}.	c #7C3E00",
"|.	c #BA7600",
"1.	c #D08C09",
"2.	c #BB8014",
"3.	c #C78508",
"4.	c #9A6501",
"5.	c #FEE3B2",
"6.	c #F6B53B",
"7.	c #E3A024",
"8.	c #F4AE27",
"9.	c #CA8509",
"0.	c #703300",
"a.	c #723000",
"b.	c #BB3A0A",
"c.	c #FC351F",
"d.	c #BE2A1D",
"e.	c #D22C1F",
"f.	c #EC341F",
"g.	c #B73F0E",
"h.	c #E3321A",
"i.	c #B24226",
"j.	c #F1A685",
"k.	c #B76640",
"l.	c #536F26",
"m.	c #776C17",
"n.	c #863C00",
"o.	c #813B00",
"p.	c #804000",
"q.	c #B97600",
"r.	c #C38207",
"s.	c #B07A17",
"t.	c #BA7C08",
"u.	c #664300",
"v.	c #FCC866",
"w.	c #EFA61D",
"x.	c #FAB025",
"y.	c #DC960F",
"z.	c #753800",
"A.	c #702B00",
"B.	c #7B3F03",
"C.	c #A26C26",
"D.	c #CE4B29",
"E.	c #DA321F",
"F.	c #ED2A21",
"G.	c #D1341B",
"H.	c #CC3B12",
"I.	c #F72E1B",
"J.	c #C13B19",
"K.	c #A0401E",
"L.	c #CB351C",
"M.	c #F03A16",
"N.	c #A94F0D",
"O.	c #84490C",
"P.	c #8F4F0A",
"Q.	c #8A4400",
"R.	c #8C4A00",
"S.	c #C07D00",
"T.	c #B37A0F",
"U.	c #B6790A",
"V.	c #966201",
"W.	c #FDD790",
"X.	c #EFAB2C",
"Y.	c #E4A225",
"Z.	c #F5AA18",
"`.	c #915300",
" +	c #6F2D00",
".+	c #752E00",
"++	c #774C06",
"@+	c #2DB739",
"#+	c #22B640",
"$+	c #B1A51F",
"%+	c #E06F10",
"&+	c #B14B0E",
"*+	c #DB3516",
"=+	c #EF301C",
"-+	c #983208",
";+	c #8C3603",
">+	c #D1420C",
",+	c #92482C",
"'+	c #624E72",
")+	c #6E6082",
"!+	c #887E80",
"~+	c #B5874B",
"{+	c #A05804",
"]+	c #A56300",
"^+	c #BD7C00",
"/+	c #A87008",
"(+	c #AA7106",
"_+	c #4C3200",
":+	c #FBC55E",
"<+	c #E29D1E",
"[+	c #CB8508",
"}+	c #6D2F00",
"|+	c #783300",
"1+	c #9D3B05",
"2+	c #AD4709",
"3+	c #39A231",
"4+	c #2FB83A",
"5+	c #B6A213",
"6+	c #6E2F01",
"7+	c #7E3702",
"8+	c #E8351B",
"9+	c #CF3515",
"0+	c #783504",
"a+	c #6C4A41",
"b+	c #5A4E73",
"c+	c #6E505A",
"d+	c #C18C6D",
"e+	c #EDA579",
"f+	c #F6A96E",
"g+	c #AF6B12",
"h+	c #A15E00",
"i+	c #BB7900",
"j+	c #A16E0D",
"k+	c #A17013",
"l+	c #734B00",
"m+	c #F7B436",
"n+	c #E6A01C",
"o+	c #F3A918",
"p+	c #975800",
"q+	c #6E2C00",
"r+	c #8D4405",
"s+	c #EE411A",
"t+	c #F03515",
"u+	c #6D7E1E",
"v+	c #51B82E",
"w+	c #EBB605",
"x+	c #7C3801",
"y+	c #762B01",
"z+	c #E23819",
"A+	c #992F0A",
"B+	c #622300",
"C+	c #7E410F",
"D+	c #844B27",
"E+	c #9B4D0E",
"F+	c #AA4D00",
"G+	c #D08441",
"H+	c #C9A386",
"I+	c #988A8E",
"J+	c #826760",
"K+	c #AC6901",
"L+	c #BA7502",
"M+	c #A97003",
"N+	c #956918",
"O+	c #895B03",
"P+	c #2A1B00",
"Q+	c #FCC45A",
"R+	c #F1A921",
"S+	c #E59A0C",
"T+	c #7D3802",
"U+	c #5D3E15",
"V+	c #D25B21",
"W+	c #FE311C",
"X+	c #C24513",
"Y+	c #99A314",
"Z+	c #FFD701",
"`+	c #A56B05",
" @	c #611B00",
".@	c #B8400D",
"+@	c #682000",
"@@	c #772D00",
"#@	c #9A4506",
"$@	c #954201",
"%@	c #8A3E00",
"&@	c #8E4600",
"*@	c #845A34",
"=@	c #6E6395",
"-@	c #6A5B98",
";@	c #786278",
">@	c #AD6C02",
",@	c #BE7907",
"'@	c #B17501",
")@	c #8D6111",
"!@	c #8E5F07",
"~@	c #372400",
"{@	c #FCBC42",
"]@	c #E7A01B",
"^@	c #E6A01F",
"/@	c #D18804",
"(@	c #733200",
"_@	c #824911",
":@	c #86705C",
"<@	c #855E1D",
"[@	c #FA5B1D",
"}@	c #AB300A",
"|@	c #894601",
"1@	c #E2B304",
"2@	c #D8A605",
"3@	c #602000",
"4@	c #693207",
"5@	c #683E17",
"6@	c #713A0D",
"7@	c #6D2901",
"8@	c #844300",
"9@	c #915102",
"0@	c #AD6803",
"a@	c #A4711A",
"b@	c #7D625C",
"c@	c #785B7B",
"d@	c #806569",
"e@	c #AF6E00",
"f@	c #C17E0C",
"g@	c #BA7D07",
"h@	c #885C0A",
"i@	c #8B5F0E",
"j@	c #432B01",
"k@	c #FCB42C",
"l@	c #E69E19",
"m@	c #EFA516",
"n@	c #C37C01",
"o@	c #8B4C0A",
"p@	c #986525",
"q@	c #B0821E",
"r@	c #EFA822",
"s@	c #873D04",
"t@	c #723001",
"u@	c #B78407",
"v@	c #814B04",
"w@	c #8E5311",
"x@	c #7F6A0A",
"y@	c #78C024",
"z@	c #D4D813",
"A@	c #D8AD0B",
"B@	c #CACF09",
"C@	c #8BAD1C",
"D@	c #A37E13",
"E@	c #BD7300",
"F@	c #C6840E",
"G@	c #C1840F",
"H@	c #825708",
"I@	c #865B0C",
"J@	c #492F00",
"K@	c #F9AC1A",
"L@	c #EA9E0D",
"M@	c #F1A209",
"N@	c #BF7800",
"O@	c #713200",
"P@	c #954703",
"Q@	c #EF5616",
"R@	c #FF4E1D",
"S@	c #F5501E",
"T@	c #E64717",
"U@	c #B23C0D",
"V@	c #863803",
"W@	c #702E00",
"X@	c #764810",
"Y@	c #803F00",
"Z@	c #846B0A",
"`@	c #96A514",
" #	c #EDDC08",
".#	c #F2DE08",
"+#	c #A4E420",
"@#	c #7CDB27",
"##	c #B89106",
"$#	c #CD870E",
"%#	c #C48815",
"&#	c #805506",
"*#	c #80570C",
"=#	c #482F01",
"-#	c #F4A40D",
";#	c #EA9D0C",
">#	c #EEA00A",
",#	c #C27B00",
"'#	c #7C3C00",
")#	c #854200",
"!#	c #A04C04",
"~#	c #D54611",
"{#	c #F13916",
"]#	c #FB371A",
"^#	c #FC3C1C",
"/#	c #ED3F1A",
"(#	c #B4430C",
"_#	c #854D05",
":#	c #A54F05",
"<#	c #A65800",
"[#	c #9D5600",
"}#	c #B77C03",
"|#	c #DCB60C",
"1#	c #F0E407",
"2#	c #94F625",
"3#	c #89C81C",
"4#	c #D38D12",
"5#	c #C38919",
"6#	c #784E01",
"7#	c #785107",
"8#	c #412A01",
"9#	c #E79906",
"0#	c #E4990E",
"a#	c #DD9612",
"b#	c #CB8401",
"c#	c #864700",
"d#	c #8E4C00",
"e#	c #BE540C",
"f#	c #DB4E1B",
"g#	c #996F24",
"h#	c #A36319",
"i#	c #B34B0A",
"j#	c #A9440A",
"k#	c #903904",
"l#	c #823600",
"m#	c #915400",
"n#	c #884B00",
"o#	c #C5530F",
"p#	c #E75819",
"q#	c #BA6E02",
"r#	c #A87303",
"s#	c #B7D215",
"t#	c #FFF501",
"u#	c #EDDC11",
"v#	c #A0BC1A",
"w#	c #D99E1D",
"x#	c #BB8315",
"y#	c #6D4A0B",
"z#	c #725010",
"A#	c #342200",
"B#	c #CC8603",
"C#	c #E6990B",
"D#	c #D1911B",
"E#	c #D88E02",
"F#	c #935500",
"G#	c #965500",
"H#	c #C75513",
"I#	c #D64C22",
"J#	c #BC7344",
"K#	c #708F45",
"L#	c #8B4B00",
"M#	c #995500",
"N#	c #8F5A07",
"O#	c #777120",
"P#	c #7A6E1C",
"Q#	c #8E4100",
"R#	c #94780A",
"S#	c #946C06",
"T#	c #B86404",
"U#	c #F44A21",
"V#	c #EB5318",
"W#	c #AFA510",
"X#	c #69EF31",
"Y#	c #C0E21B",
"Z#	c #FF6925",
"`#	c #D5730D",
" $	c #E0AB2B",
".$	c #A3710D",
"+$	c #65450A",
"@$	c #684709",
"#$	c #261900",
"$$	c #DE9306",
"%$	c #CF8D12",
"&$	c #D99105",
"*$	c #A86900",
"=$	c #9C5B00",
"-$	c #C0670E",
";$	c #AF6224",
">$	c #EF4C29",
",$	c #9C371A",
"'$	c #7F4A01",
")$	c #84510D",
"!$	c #7A8449",
"~$	c #5AA35E",
"{$	c #7C6013",
"]$	c #A15400",
"^$	c #6BBD28",
"/$	c #8B9413",
"($	c #B16700",
"_$	c #E36114",
":$	c #E24820",
"<$	c #91610A",
"[$	c #85DE24",
"}$	c #8BDD32",
"|$	c #E26F19",
"1$	c #D08E08",
"2$	c #E3AC35",
"3$	c #7E5403",
"4$	c #64460E",
"5$	c #583B05",
"6$	c #191000",
"7$	c #C48101",
"8$	c #D18E12",
"9$	c #D28D0B",
"0$	c #C37F00",
"a$	c #9C5F00",
"b$	c #C76E0A",
"c$	c #FF9B18",
"d$	c #F0BF22",
"e$	c #B1952A",
"f$	c #7C6123",
"g$	c #5D3E1A",
"h$	c #5A300E",
"i$	c #8A4F08",
"j$	c #AA5B00",
"k$	c #A98A06",
"l$	c #79E72B",
"m$	c #959912",
"n$	c #B26A00",
"o$	c #D8890B",
"p$	c #D7861A",
"q$	c #7E5F10",
"r$	c #A6A510",
"s$	c #9ABE1D",
"t$	c #CD8600",
"u$	c #E8AD29",
"v$	c #C49024",
"w$	c #614004",
"x$	c #65450C",
"y$	c #3F2901",
"z$	c #915F01",
"A$	c #D38C07",
"B$	c #C2830E",
"C$	c #CB8602",
"D$	c #AE6E00",
"E$	c #B57601",
"F$	c #EADD05",
"G$	c #FFFF00",
"H$	c #FFFF04",
"I$	c #FFFB10",
"J$	c #E1C61F",
"K$	c #948D16",
"L$	c #AE8E05",
"M$	c #B66C00",
"N$	c #B28325",
"O$	c #EAD814",
"P$	c #D6B106",
"Q$	c #CD6D0B",
"R$	c #EA9014",
"S$	c #C58616",
"T$	c #AFA01B",
"U$	c #9C7207",
"V$	c #D69200",
"W$	c #DF9D0B",
"X$	c #E9B443",
"Y$	c #855804",
"Z$	c #583D0C",
"`$	c #5C400A",
" %	c #221600",
".%	c #B17401",
"+%	c #BF8313",
"@%	c #B87D0F",
"#%	c #C38100",
"$%	c #B17000",
"%%	c #C18302",
"&%	c #D2AD05",
"*%	c #D4B403",
"=%	c #C4B107",
"-%	c #8FC01B",
";%	c #80EB27",
">%	c #C4BE29",
",%	c #AE8448",
"'%	c #987573",
")%	c #B89F56",
"!%	c #DEA30E",
"~%	c #F55321",
"{%	c #F66122",
"]%	c #A07915",
"^%	c #8C7E15",
"/%	c #906604",
"(%	c #DF9601",
"_%	c #EDB843",
":%	c #B17F1A",
"<%	c #553702",
"[%	c #5B410E",
"}%	c #402A02",
"|%	c #5F3E01",
"1%	c #BD7D06",
"2%	c #B3790E",
"3%	c #B97902",
"4%	c #C07F00",
"5%	c #BF7B00",
"6%	c #C47C00",
"7%	c #C87800",
"8%	c #A3A711",
"9%	c #58EE38",
"0%	c #BCF615",
"a%	c #E1C42D",
"b%	c #815575",
"c%	c #7D4B6F",
"d%	c #967556",
"e%	c #DF7F12",
"f%	c #FE5923",
"g%	c #DF5B1E",
"h%	c #5D400F",
"i%	c #614B09",
"j%	c #B58001",
"k%	c #F2B93E",
"l%	c #C8952C",
"m%	c #603F04",
"n%	c #543A0A",
"o%	c #523909",
"p%	c #1B1100",
"q%	c #734B01",
"r%	c #BB7C06",
"s%	c #A87009",
"t%	c #AC7206",
"u%	c #C28100",
"v%	c #CD8A00",
"w%	c #D08A01",
"x%	c #D08C00",
"y%	c #A4BF16",
"z%	c #E9F50A",
"A%	c #F6F006",
"B%	c #BEA437",
"C%	c #A88C44",
"D%	c #BB9615",
"E%	c #DD780F",
"F%	c #EE631D",
"G%	c #BF6114",
"H%	c #7E5F02",
"I%	c #B6850E",
"J%	c #F0BA44",
"K%	c #C9962D",
"L%	c #633F00",
"M%	c #4F3607",
"N%	c #563B09",
"O%	c #291B01",
"P%	c #7A4F00",
"Q%	c #AB740E",
"R%	c #9A6B15",
"S%	c #9D6805",
"T%	c #BB7D00",
"U%	c #D49102",
"V%	c #DD9604",
"W%	c #E19502",
"X%	c #C8AB07",
"Y%	c #A7CB13",
"Z%	c #A6D211",
"`%	c #C1AA02",
" &	c #D59000",
".&	c #D38F00",
"+&	c #CE8D00",
"@&	c #D2950B",
"#&	c #E7AE2D",
"$&	c #EFBA46",
"%&	c #B07F1D",
"&&	c #5C3A00",
"*&	c #543908",
"=&	c #312102",
"-&	c #6F4800",
";&	c #9F6C0C",
">&	c #906516",
",&	c #8D5F0A",
"'&	c #A06A00",
")&	c #C38301",
"!&	c #DC980A",
"~&	c #E09A11",
"{&	c #D79813",
"]&	c #CF9312",
"^&	c #D69211",
"/&	c #E2A017",
"(&	c #E4A722",
"_&	c #E9AF32",
":&	c #E6AF3A",
"<&	c #C28F28",
"[&	c #7F5505",
"}&	c #4F3300",
"|&	c #4F3505",
"1&	c #533907",
"2&	c #312003",
"3&	c #533700",
"4&	c #8C5E09",
"5&	c #8F6311",
"6&	c #83580A",
"7&	c #7E5407",
"8&	c #8D5D02",
"9&	c #A46E04",
"0&	c #B77F0C",
"a&	c #C38915",
"b&	c #C48D1B",
"c&	c #C08A1D",
"d&	c #B58119",
"e&	c #9A6C0F",
"f&	c #744D01",
"g&	c #533500",
"h&	c #4A3103",
"i&	c #533808",
"j&	c #4C3408",
"k&	c #322000",
"l&	c #654201",
"m&	c #815607",
"n&	c #7F5913",
"o&	c #755110",
"p&	c #6D4A09",
"q&	c #6A4500",
"r&	c #694401",
"s&	c #644200",
"t&	c #603F03",
"u&	c #573A03",
"v&	c #513705",
"w&	c #382603",
"x&	c #181000",
"y&	c #312000",
"z&	c #513501",
"A&	c #654405",
"B&	c #6E4B09",
"C&	c #6D4A08",
"D&	c #684606",
"E&	c #634409",
"F&	c #60430C",
"G&	c #5B400C",
"H&	c #543B0A",
"I&	c #493207",
"J&	c #362505",
"K&	c #1D1300",
"L&	c #1C1300",
"M&	c #271900",
"N&	c #302000",
"O&	c #362300",
"P&	c #372401",
"Q&	c #1E1300",
"R&	c #140D00",
"                                                                ",
"                          . + @ # $ % &                         ",
"                    * = - ; > , ' ) ! ~ { ] ^                   ",
"                / ( _ : < [ } | 1 2 3 4 5 6 7 8 9               ",
"              0 a b c d e f g h i j k l m n o p q r             ",
"            s t u v w x y z A B C D E F G H I J K L M           ",
"          N O P Q R S T U V W X Y Z `  ...W +.@.#.$.%.&.        ",
"        *.=.-.;.>.,.'.).!.~.{.].^./.(._.:.<.[.}.|.1.2.3.4.      ",
"      5.6.7.8.9.0.a.b.c.d.e.f.g.h.i.j.k.l.m.n.o.p.q.r.s.t.u.    ",
"      v.w.x.y.z.A.B.C.D.E.F.G.H.I.J.K.L.M.N.O.P.Q.R.S.T.U.V.    ",
"    W.X.Y.Z.`. +.+++@+#+$+%+&+*+=+-+;+>+,+'+)+!+~+{+]+^+/+(+_+  ",
"    :+<+O [+}+|+1+2+3+4+5+6+7+8+9+B 0+a+b+c+d+e+f+g+h+i+j+k+l+  ",
"    m+n+o+p+q+r+s+t+u+v+w+x+y+z+A+B+C+D+E+F+G+H+I+J+K+L+M+N+O+P+",
"  Q+R+7.S+z T+U+V+W+X+Y+Z+`+ @.@+@@@#@$@%@&@*@=@-@;@>@,@'@)@!@~@",
"  {@]@^@/@(@_@:@<@[@}@|@1@2@3@4@5@6@7@8@9@0@a@b@c@d@e@f@g@h@i@j@",
"  k@l@m@n@(@o@p@q@r@s@3@t@u@v@      w@x@y@z@A@B@C@D@E@F@G@H@I@J@",
"  K@L@M@N@O@P@Q@R@S@T@U@V@W@X@        Y@Z@`@ #.#+#@###$#%#&#*#=#",
"  -#;#>#,#'#)#!#~#{#]#^#/#(#_#        :#<#[#}#|#1#2#3#4#5#6#7#8#",
"  9#0#a#b#c#d#e#f#g#h#i#j#k#l#m#    n#o#p#q#r#s#t#u#v#w#x#y#z#A#",
"  B#C#D#E#F#G#H#I#J#K#L#M#N#O#P#Q#R#S#T#U#V#W#X#Y#Z#`# $.$+$@$#$",
"    $$%$&$*$=$-$;$>$,$'$)$!$~${$]$^$/$($_$:$<$[$}$|$1$2$3$4$5$6$",
"    7$8$9$0$a$b$c$d$e$f$g$h$i$j$k$l$m$n$o$p$q$r$s$t$u$v$w$x$y$  ",
"    z$A$B$C$D$E$F$G$H$I$J$K$L$M$N$O$P$Q$R$S$T$U$V$W$X$Y$Z$`$ %  ",
"      .%+%@%#%$%%%&%*%=%-%;%>%,%'%)%!%~%{%]%^%/%(%_%:%<%[%}%    ",
"      |%1%2%3%4%5%6%7%8%9%0%a%b%c%d%e%f%g%h%i%j%k%l%m%n%o%p%    ",
"        q%r%s%t%u%v%w%x%y%z%A%B%C%D%E%F%G%H%I%J%K%L%M%N%O%      ",
"          P%Q%R%S%T%U%V%W%X%Y%Z%`% &.&+&@&#&$&%&&&M%*&=&        ",
"            -&;&>&,&'&)&!&~&{&]&^&/&(&_&:&<&[&}&|&1&2&          ",
"              3&4&5&6&7&8&9&0&a&b&c&d&e&f&g&h&i&j&#$            ",
"                k&l&m&n&o&p&q&r&s&t&u&v&1&n%M%w&x&              ",
"                    y&z&A&B&C&D&E&F&G&H&I&J&K&                  ",
"                        L&M&N&O&P&k&O%Q&R&                      "};
