/* XPM */
static char *cbqw0_yk2pk[] = {
/* columns rows colors chars-per-pixel */
"32 32 241 2 ",
"   c None",
".  c #00000A",
"X  c #011702",
"o  c #210A01",
"O  c #390007",
"+  c #003400",
"@  c #0A2403",
"#  c #37310C",
"$  c #17002B",
"%  c #000025",
"&  c #2F0431",
"*  c #343325",
"=  c #470001",
"-  c #540000",
";  c #590203",
":  c #4A1602",
">  c #4B011A",
",  c #630000",
"<  c #6A0507",
"1  c #770500",
"2  c #7B1601",
"3  c #6B0F14",
"4  c #5D2516",
"5  c #4B350F",
"6  c #7A3719",
"7  c #692606",
"8  c #4C3231",
"9  c #723127",
"0  c #5C1129",
"q  c #014801",
"w  c #105307",
"e  c #294208",
"r  c #55450D",
"t  c #515515",
"y  c #6B610E",
"u  c #5C4B22",
"i  c #744F30",
"p  c #577C2B",
"a  c #7A7237",
"s  c #746A33",
"d  c #754606",
"f  c #39374D",
"g  c #030861",
"h  c #000076",
"j  c #122569",
"k  c #323F60",
"l  c #4F3D41",
"z  c #6D6F4A",
"x  c #657863",
"c  c #4A636E",
"v  c #840C00",
"b  c #871C00",
"n  c #981A00",
"m  c #A71B00",
"M  c #A80900",
"N  c #8D2501",
"B  c #942A00",
"V  c #9A2C00",
"C  c #9B2500",
"Z  c #9D3300",
"A  c #973901",
"S  c #913A12",
"D  c #A32B02",
"F  c #AD2C00",
"G  c #A52403",
"H  c #B32C04",
"J  c #A33B01",
"K  c #A73702",
"L  c #B23E00",
"P  c #B73805",
"I  c #AB3414",
"U  c #853B23",
"Y  c #893730",
"T  c #A83022",
"R  c #C33C01",
"E  c #C73800",
"W  c #D63800",
"Q  c #9E4302",
"!  c #90550A",
"~  c #AB4603",
"^  c #B74704",
"/  c #A65207",
"(  c #B65B09",
")  c #A74313",
"_  c #BC5816",
"`  c #B34D1B",
"'  c #836A12",
"]  c #8D7018",
"[  c #AB680E",
"{  c #B86706",
"}  c #BA7C09",
"|  c #BC6717",
" . c #B1750F",
".. c #8E522F",
"X. c #B74D27",
"o. c #966A28",
"O. c #906B34",
"+. c #BD7B22",
"@. c #A97B34",
"#. c #B5702F",
"$. c #C54C03",
"%. c #D34A00",
"&. c #C65A06",
"*. c #D55700",
"=. c #C25813",
"-. c #F34800",
";. c #FD5800",
":. c #C7670A",
">. c #D66401",
",. c #D66508",
"<. c #C87807",
"1. c #D97706",
"2. c #C86616",
"3. c #CA781A",
"4. c #D87919",
"5. c #D76914",
"6. c #E36400",
"7. c #E56C00",
"8. c #E86900",
"9. c #FD6301",
"0. c #FA6901",
"q. c #EA7904",
"w. c #FF7701",
"e. c #F07B14",
"r. c #C35A27",
"t. c #C9512F",
"y. c #C56923",
"u. c #C37424",
"i. c #D67926",
"p. c #D17C33",
"a. c #F67F21",
"s. c #9B5F41",
"d. c #976849",
"f. c #94795B",
"g. c #926E4C",
"h. c #B17744",
"j. c #8F7F66",
"k. c #6A8E32",
"l. c #928614",
"z. c #9C973E",
"x. c #888A33",
"c. c #A28321",
"v. c #A88B38",
"b. c #AD8F2A",
"n. c #9CA131",
"m. c #BEB032",
"M. c #B88F11",
"N. c #CC8307",
"B. c #D59C05",
"V. c #CB8517",
"C. c #D98215",
"Z. c #D0940C",
"A. c #EB8502",
"S. c #FE8400",
"D. c #FF8900",
"F. c #F58D05",
"G. c #EC9010",
"H. c #C4A718",
"J. c #D1B617",
"K. c #D3A813",
"L. c #FFAB0C",
"P. c #FFA912",
"I. c #E3B30E",
"U. c #D58528",
"Y. c #D8982C",
"T. c #D88B35",
"R. c #DA9739",
"E. c #C9982E",
"W. c #EC962B",
"Q. c #E28D30",
"!. c #D7B628",
"~. c #D8A73B",
"^. c #C8AE2C",
"/. c #E7A838",
"(. c #EBB029",
"). c #D8C41F",
"_. c #EBC51E",
"`. c #D1C32B",
"'. c #F1D332",
"]. c #F5F736",
"[. c #999156",
"{. c #8D9149",
"}. c #9F8A67",
"|. c #BDBA61",
" X c #D79744",
".X c #C89749",
"XX c #E69643",
"oX c #E99F50",
"OX c #DAA643",
"+X c #DDB446",
"@X c #D3B250",
"#X c #E6AD4A",
"$X c #E8BB46",
"%X c #E6AA58",
"&X c #EDBF5E",
"*X c #DFAC68",
"=X c #DCB668",
"-X c #E5B764",
";X c #E1B674",
":X c #C7C749",
">X c #DAC553",
",X c #D5CC51",
"<X c #E5DC4B",
"1X c #E7C855",
"2X c #EBD756",
"3X c #EFD34F",
"4X c #F5F650",
"5X c #C3CC6F",
"6X c #DACC61",
"7X c #E6CC64",
"8X c #E8CA67",
"9X c #E8DA66",
"0X c #E8C879",
"qX c #EBD37A",
"wX c #F3DA78",
"eX c #F3D669",
"rX c #DFE874",
"tX c #F3EA6D",
"yX c #F7FF64",
"uX c #E9EA76",
"iX c #E6FE7A",
"pX c #ECE468",
"aX c #000988",
"sX c #001A8F",
"dX c #000290",
"fX c #003086",
"gX c #BDC087",
"hX c #C3D582",
"jX c #C8CF92",
"kX c #EBD689",
"lX c #EFD785",
"zX c #DCE686",
"xX c #ECE888",
"cX c #FDFF87",
"vX c #EDEC92",
"bX c #EFD7A5",
"nX c #D7E7A1",
"mX c #FEFCA2",
"MX c #FEFFB6",
"NX c #F3E9A0",
"BX c #E5FFC1",
/* pixels */
"                          xX5X|.|.5XzX                          ",
"                    hXh.6 < , O = 1 1 6 O.hX                    ",
"                jX..; , 9 ..s.g.d.d...Y < , 6 gX                ",
"              f.- 3 d.j.g...S ) ) ) ..g.j.f.3 - g.BX            ",
"          nXi - g.}...N v [ ) C L K B b b ..j.g., 4 nX          ",
"        iX9 ; [.d.b v V N } !.G K ( ( B A 2 2 g.[.< : zX        ",
"        ..- z...2 V +.T D D I.=.P :.L Z B A B 1 6 {.3 7 iX      ",
"      c.= c.J 1 ~ C V.4XT ^ _.$.H Z.| D [ K A A 1 7 v.- !       ",
"    J.; d C.) S n L n I.Y.G _.=.P N.P ( 3.Z D b U S { ..= H.    ",
"    ! =  .E eXmX.XP m B.(.G I.:.$.1.^ <.| m I .XmX8XM  .0 7     ",
"  H.; ! e.H ~.cXyXE.H C.#X=.'.&.E Y.3.2.:.I ~.yXcXE.m *.o.= ^.  ",
"  b.O b.9.*.M.4X3X`.&.R.8X$.eX5.%.~.=.4.y.:.`.3XyX[ %.-.b.& o.  ",
"  i 5 /.;.q.Z | <XpX2. XwX%.1Xe.>.R.$./. Xy.tX<X[ N 6.-.W.l 3   ",
",X7 u P.0.A._ P :.vX#XU.wX5.wXC.>.#X,.+XR.%XkX_ I ` 7.;.F.i > uX",
":X# ' P.S.7.OXmXQ.U.+X4.qXR.vXA.>.qXR.R.C.OXb.R.mX.X%.9.D.O.& :X",
"@Xo o.L.D.A.{ xXtX1X/.1.lXU.0XG.q.-X4.R.>./.8XtXxX/ 6.w.D.@.$ ^.",
"^.o ] L.D.F.^ { 1XMX$X4.NXi.-XW.1.%X5.-Xi.1XMX>X( A q.w.S.@.$ ^.",
"^.# ' L.D.F.( ,.1.R.(.4.bX XkXW.1.lX4.;XT.R.U.:.&./ 7.0.S.o.$ ^.",
"H.r r L.S.A.^ lX7X<.Y.1.bXXX;XXXC.*X1.;X4.E.<.7XlXQ 6.9.D.i & '.",
"  y # G.S.A.~  XrX,X#X,.qXoX%X%Xp.%X4.#X5.@X<XuX XB 7.;.S.f 8   ",
"  c.@ } w.A.^ ^ } 8X9X>.=X-Xi.lX=XU.p.*X:.pX6X{ ~ A >.;.<.g ..  ",
"  M.e y e.6./ ^ U.R.V.:.T.qXE @X7XE ~. X&.V. Xp.K A %.0.s g K.  ",
"    l.+ V.8.Q G 8XcX$XOX=.K.i.E %.$.N.2.OX1XcX=Xn A W 1.j l     ",
"    ^.e t a.B B L Y.7X1X2.F U.t.H <.P 2.1X7XE.C N 2 7.z h J.    ",
"      n.+ x.` b K H F _ ~._ ^ (.Z.$.=.+X) C n Z 2 A b.dXs       ",
"        x.q O.t.n ~ L D | 1X| &.,.y.1X| C Z A 2 K n.aXk ].      ",
"        >Xp q x.t.F V ~ G y.2XX.r.2Xy.G J B n ( z.sXj ].        ",
"          =Xk.q k.h.t.I D n K ~.E.^ n D D _ V.x aXk ].          ",
"              {.w w p h.#.| ^ P E P y.#.v.z fXh z 4X            ",
"                6Xk.X . * a O.@.v.v.O.8 . % c ,X                ",
"                    !.] 5 r t # * y r 5 ] ).                    ",
"                          B.B.Z.B.B.B.                          "
};
