/* XPM */
static char *cby4h_ypq9n[] = {
/* columns rows colors chars-per-pixel */
"64 64 256 2 ",
"   c None",
".  c #0A0001",
"X  c #190502",
"o  c #270601",
"O  c #3B0400",
"+  c #33110E",
"@  c #153604",
"#  c #142D01",
"$  c #393604",
"%  c #312A0D",
"&  c #2D0829",
"*  c #332437",
"=  c #480201",
"-  c #540000",
";  c #5C0100",
":  c #580E03",
">  c #4F0C12",
",  c #640000",
"<  c #6B0100",
"1  c #6D0B02",
"2  c #720200",
"3  c #7B0502",
"4  c #7B1801",
"5  c #6A1111",
"6  c #4E310B",
"7  c #772600",
"8  c #6A2D0F",
"9  c #4F0C2E",
"0  c #700B30",
"q  c #4F312C",
"w  c #693628",
"e  c #104A01",
"r  c #2E5109",
"t  c #346A06",
"y  c #51500D",
"u  c #685213",
"i  c #497004",
"p  c #757010",
"a  c #505433",
"s  c #704F2F",
"d  c #6F712C",
"f  c #4C652B",
"g  c #0F1255",
"h  c #2B154A",
"j  c #192A50",
"k  c #283149",
"l  c #08196D",
"z  c #342C72",
"x  c #112E6B",
"c  c #51225C",
"v  c #57275F",
"b  c #294250",
"n  c #725744",
"m  c #6E744B",
"M  c #4F5048",
"N  c #880301",
"B  c #980301",
"V  c #881801",
"C  c #971900",
"Z  c #901016",
"A  c #A60200",
"S  c #A91900",
"D  c #B61B00",
"F  c #8B2D00",
"G  c #862701",
"H  c #972701",
"J  c #8B3200",
"K  c #853300",
"L  c #943400",
"P  c #9B3500",
"I  c #9C3A00",
"U  c #963B01",
"Y  c #972D16",
"T  c #A32300",
"R  c #AC2B00",
"E  c #A72802",
"W  c #B42C00",
"Q  c #A33600",
"!  c #A43B00",
"~  c #AB3D00",
"^  c #AB3403",
"/  c #B33B01",
"(  c #BB3B01",
")  c #B63501",
"_  c #B03A16",
"`  c #910F2A",
"'  c #A13024",
"]  c #C43A00",
"[  c #D23400",
"{  c #9C4602",
"}  c #8D4F11",
"|  c #AC4200",
" . c #A74703",
".. c #B34300",
"X. c #BB4401",
"o. c #B74903",
"O. c #AC5603",
"+. c #B75803",
"@. c #B54914",
"#. c #B95517",
"$. c #A75118",
"%. c #8C7310",
"&. c #BA6705",
"*. c #B66F12",
"=. c #B4532E",
"-. c #8B6F2B",
";. c #B76B2E",
":. c #945025",
">. c #C44C00",
",. c #CB4C01",
"<. c #C64402",
"1. c #D54901",
"2. c #CC5400",
"3. c #C95803",
"4. c #D35300",
"5. c #D35B00",
"6. c #DB5B01",
"7. c #C45A16",
"8. c #E85900",
"9. c #EC5100",
"0. c #C86605",
"q. c #D56301",
"w. c #DA6400",
"e. c #DB6B01",
"r. c #D46B08",
"t. c #DC7400",
"y. c #D87607",
"u. c #C96619",
"i. c #D57616",
"p. c #CA750E",
"a. c #E96701",
"s. c #FB6C00",
"d. c #F66601",
"f. c #E47700",
"g. c #FA7301",
"h. c #F67A01",
"j. c #E47416",
"k. c #C4572B",
"l. c #C87725",
"z. c #CC732D",
"x. c #B17149",
"c. c #A5644E",
"v. c #CB7050",
"b. c #7A8635",
"n. c #5A8410",
"m. c #7A8A4D",
"M. c #3C8100",
"N. c #959012",
"B. c #B1930E",
"V. c #BAB10E",
"C. c #948F2C",
"Z. c #B0962E",
"A. c #AEAE31",
"S. c #8DAC27",
"D. c #CB871A",
"F. c #D58519",
"G. c #CF940C",
"H. c #E58703",
"J. c #FA8500",
"K. c #FB8A00",
"L. c #F78301",
"P. c #ED9800",
"I. c #FC9503",
"U. c #F19316",
"Y. c #DDA603",
"T. c #D2A914",
"R. c #F9BA04",
"E. c #ECB00E",
"W. c #C98729",
"Q. c #D68829",
"!. c #D59728",
"~. c #D58935",
"^. c #D79738",
"/. c #CC9031",
"(. c #E79031",
"). c #CBA926",
"_. c #D8A836",
"`. c #D9B83B",
"'. c #D1B12E",
"]. c #E5A838",
"[. c #F1B52E",
"{. c #ACCA2D",
"}. c #FAC707",
"|. c #F3CF11",
" X c #FCEF11",
".X c #D7C732",
"XX c #EDD230",
"oX c #FCF12F",
"OX c #D4C712",
"+X c #8F964D",
"@X c #B28D50",
"#X c #99AA52",
"$X c #B1AF4C",
"%X c #A39A6E",
"&X c #91B375",
"*X c #B1AD6E",
"=X c #879C73",
"-X c #D89B46",
";X c #D18E48",
":X c #D9A746",
">X c #DAB847",
",X c #DBB657",
"<X c #CEAE4C",
"1X c #E5A647",
"2X c #E4B949",
"3X c #E8B355",
"4X c #CA9869",
"5X c #D2B669",
"6X c #E9BC68",
"7X c #E49A50",
"8X c #AFCF72",
"9X c #A5D063",
"0X c #DCC647",
"qX c #D4CE52",
"wX c #E5C847",
"eX c #E6D746",
"rX c #F4DA46",
"tX c #E7C856",
"yX c #E8D656",
"uX c #F6CE54",
"iX c #FEF948",
"pX c #F5E557",
"aX c #FEFD56",
"sX c #EFE94E",
"dX c #D7CD6F",
"fX c #E8CB66",
"gX c #EAD468",
"hX c #ECD977",
"jX c #ECCE75",
"kX c #F8E868",
"lX c #FEFD69",
"zX c #F5E877",
"xX c #FDFD7B",
"cX c #E9E56F",
"vX c #D2E664",
"bX c #152D85",
"nX c #2A3986",
"mX c #32478F",
"MX c #4A4083",
"NX c #92B488",
"BX c #A7B38B",
"VX c #B6D78E",
"CX c #E6CD86",
"ZX c #EDD88D",
"AX c #F5EA87",
"SX c #FDF888",
"DX c #F6E597",
"FX c #FCFC98",
"GX c #EAED8F",
"HX c #FAFAA7",
"JX c #FCFCB5",
"KX c #F0F2AE",
"LX c #D3DF93",
"PX c #FEFFC9",
"IX c #FCFFD4",
"UX c #FFFFEB",
/* pixels */
"                                                          SXSXSXAXSXSX                                                          ",
"                                                FXSXGXvX9X*X#X+X+X#X#X9XdXGXFXHX                                                ",
"                                          HXFX8X+X-.s 5 ; = = = = - ; , 4 w -.+X8XGXHX                                          ",
"                                      JXLXm.s 5 > , N B B B 3 1 2 N A A A B 2 = , w +XVXHX                                      ",
"                                  PXVX-.5 - < A B , = : 8 w s n n n :.w 5 ; 2 B A N - 2 d &XJX                                  ",
"                              HXLXm 5 ; A A ; : s %X=X&X*XBX*X4X4X*X%X*X&X=X%X:.5 , A A 2 ; s VXJX                              ",
"                            JX&X5 ; B N = w %XNX*X4Xx.$.Y V V V C H C L :.;.%X%XBXNXn - N A 2 5 m.KX                            ",
"                        FXKXn ; N B - w NXVX4X:.3 2 2 4 P L I I ! ! P L H V 3 3 Y @XBXNXn ; N B ; q VXJX                        ",
"                      FXVXq < B , 8 NXBXv.7 < V J F  .:.V I I ! ! ! ! P L L J J G , 4 c.BXNXw < B 2 = &XJX                      ",
"                    SXVX> N N , m VX4X4 1 F L L L 4 &.oX;.V ! ! | ~ ~ P I L L L F F G 1 5 x.VXm., N B = m.HX                    ",
"                  SX8XO N N = &XCXY , F U L L L L I V G.oX' E  .| ..E &.Q.H I L J F K J J , 4 5XNX8 N N - b.FX                  ",
"                xX9XO 3 N > 9X<X2 4 I L L L I I I ! P H  XT.C | ....Q D.*.H I L L L L J K K 4 - @X8Xw N 3 = C.FX                ",
"              pXvX: N N > vXW.; G U L U  .Z C ^ | ! | H Y.oXE / ..X.O.W.^ | ! I I L L L J F K G - :.8Xw 3 Z O S.SX              ",
"              aX6 N N > 9XW., J L P I C B.3Xc.Y Q | ~ C P.oX_ ~ o./ &.D.C  .~ ! P H U L L L J F K - } 9Xw N Z = {.              ",
"            iXd ; V : {.Q., L J L I ! E Q oXiX4XY / / _ T.|._ X.X.) 0.E.@.~ ~ ! Q O.L I P L L F 7 K - } 9X5 Z 3 6 oX            ",
"          |.A.- C ; n.[.B 7 L L P ! ! | H O. XoXv.H E W. X|._ X.o.( o. XF.E ..C G.!.C I P P L F F K 7 2 j.S.9 Z : p iX          ",
"          XX8 4 , y |.] E , 4 L I ! ~ ....C +. X3XE X.S Y.oX_ <.>.) 0.Y.R X.^ ^ '._ ! ! ! P L L G 3 - G S ).d 5 ` > V.          ",
"        |.%.; G 6 T.,./ ~.x.=.H V ~ ........E  XrX_ X.W Y. X_ <.>.) G.G.R o.E G.G.C | ! ! ! P N Z -.@X;.W S V.w N 0 8 |.        ",
"        OX5 C = n.I.S X.`.SXzXZX;XS E o.X.X.^ |.oX=.( S E. X_ @.>.( p.Y.S X.E T.F.E | ~ | C Y 4XCXAXSX/.R C &.N.9 ` > B.        ",
"      }.%.- V 6 T.<...3.F.AXDXkXxXtX=.) o.o.) OXoXk.#.@.Y.oX<.<.>.] y.G.k.u.E T.D.E ..X.S x.gXxXkXDXGX*.) ~ S T.s 5 0 8 |.      ",
"      OX8 V = p U.( ,.5.p.zXzXzXyXsXqXk.( >.) E.aXk.>.^.[.oX<.>.2.] p.XX_.7.R [.l.) o.R ;.yXeXyXzXzXzX$.X.X.R a.N.> ` > V.      ",
"    E.Z.O G 6 ).a.2.4.q.*.wXpXSXcX'.'.`.u.<.( '.xXz.W u.iXpX,.,.5.<.p.iX0.] ) _.z.( ) z.0X'.`.zXzXkXeX{ 2.<.<.[ A.s ` 9 p iX    ",
"    sXd , = p XX1.6.4.f.O.T.XXpXrXwX)..X!.<.( !.SX;X] <.sXkX,.4.5.,.l.uX] 2.X.2Xu.( ( :X'.).wXrXpXXX'.J 6.1.,.[ U.b.+ 0 8 oX    ",
"    vX8 G = #XU.6.w.8.H. .Z.sXyXXXrX>X).D.<.z.2XSX-X] *.yXzX7.5.q.4.Q.yXQ.,.o.>X(.l.) !.).0XrXXXyXsXZ.G w.1.4.9.a.$X9 ` 9 A.    ",
"    9X= 7 6 fXs.a.a.a.P.o.Y )..XwXtX2X).:X,.l.gXxX7X,.>.wXSX6.w.e.4.].2X>.q.3.:XkXi.<.,XT.>XyXwXXXZ.Z L e.9.4.8.1.2Xn 0 + C.FX  ",
"  pX@XO = d uXd.f.f.a.P.+.T o.W..X0X0XgX6X5.>.tXFX3X2.4.tXSXr.6.e.6.].3X,.q.>.cXfX( 7.fXgX2X0X.XZ.~ P { f.8.8.a.9.[.m.9 9 u xX  ",
"  cX-.: O m.XXa.h.a.g.P.O.H <.] *.>XzXHXhXi.,.^.HX6X5.1.2XFXr.e.t.6.:X2X,.e.0.GX1X) z.AXHXAX<XO.R ) H U f.8.a.d.9.U.+X+ 0 q aX  ",
"  qXs 7 O +X[.h.h.h.h.P.#.;.u.u.] 2.:XGXFXy.u.dXFXjX3.-XtXFXy.t.y.q._.fX1Xr.0.cXAX3.i.FXGX;X~ ( u.k.;.{ a.d.8.a.d.s.$X9 0 > qX  ",
"  qX6 7 6 $XI.K.L.L.h.H.*.hXcXgX3Xi.<.^.cX(.6.p.FXAX4.~.GXSXf.y.f.w.^.FX(.6.F.fXp.3.].cX;.W z.tXhXzXzX{ a.d.a.d.s.s.<Xq 0 + {.SX",
"qXqX6 8 $ <XI.I.L.L.J.P.o.2XSXZXzXeXQ.^.fX!.f.r.GXDXr.l.DXFXy.t.H.e.:XJX^.6./.jX6.5.!.5X-X1XrXcXhXFX<XF f.s.g.s.g.s.].M 0 & A.xX",
"0X$X% : 6 2XI.K.K.L.L.E. .l.AXZXfX0X`._.,XU.H.0.GXHXe.~.CXHXF.f.y.e.tXZX-Xw.~.jXq.t.G.,X2X`..XjXZXSX;.L f.g.d.s.g.s.[.a 0 & C.aX",
"XX$X+ 6 % ].I.I.K.L.K.P.+. .0XfXgXtXtXhX2X].t.e.AXJXj.6.^.JXH.t.H.e.jX1X4.r.;XjX5.q.1XtXzXtXtXfXfX>X{  .f.g.s.s.h.s.[.a 9 & N.aX",
".XA.O 6 6 ].I.I.K.K.K.E.+.^ Z..X0XgXDXKXzX].i.r.jXPXQ.a.^.JXF.f.H.w.CX7Xe.e.,X6X5.r._.SXHXZXgX.X0X*.Q  .f.g.g.h.g.s.[.a 9 & C.iX",
".X'.% 6 $ ].I.I.K.J.J.P.&.X.q.p.).cXDXDXuX].H./.CXPX(.i.1XPX(.y.H.t.6X3X(.6.-XDX1Xr.].gXAXHXcX).*.o...{ f.s.g.s.s.s.E.a 9 & N.iX",
"'.'.6 8 $ '.I.I.K.J.K.P.+...5.2.0.D.<XwX`.1Xa.Q.KXPX~.i.jXJX(.f.H.r.dXJX(.4.,XIXi.5.:X2X>X-X*.o.o.>. .{ f.h.s.s.g.s.E.v c & B.sX",
"  `.y 6 % Z.E.K.J.K.K.P.+...i.i.t.w.8.y.>X].H.4.:XUX1X2.;XIX(.e.f.y.KX:Xq.q.CX5X1.F.-X<X0.<.q.p.p.u.+.{ t.s.s.s.s.s.T.q c & G.pX",
"  XXu 6 # %.[.h.J.J.h.P.O...kXZXtX'.Q.j.].3XG.i.CXUX3X6.5XIX1Xr.f.i.KX6Xy.5.ZXCXq.i.tX:Xz.^._.gXDXcX .I t.d.s.d.s.g.B.* v q Y.  ",
"  OXp 6 X %.R.g.J.J.J.P.+.E uXJXCX<X`._.!.^.j.r.5XIX6X6.;XJXjX8.f.;XLX7Xf.0.ZXCXq.i.^./.>X.X<XjXHX3XH  .a.d.d.d.d.K.%.& c 6 }.  ",
"  E.B.% $ y [.h.L.L.h.I.&.E ^.zX,X<X0X).!.1X!.6.r.IXZXw.1.5XKXw.w.5X3X[ t.p.KX5.3.Q.7X).).>X,X,XAXW.H { f.d.d.d.9.I.-.h h u |.  ",
"    B.% y $ U.h.h.h.g.P.+.^ 3.>X>X>XwXqX>X:X(.r.i.KXDX4.~.DXJXy.1.5XJXQ.4.~.ZXi.q.~.2X0XtXwX>X0X_. .~ { e.d.8.d.9.E.a c h %.oX  ",
"    T.r u % %.I.a.h.f.P.+.~ 3.&.A.>XgXZXgX>XQ.4.;XKXGXw.p.;XKX(.<.LX7Xi.4.~.KX3X<.Q.wXhXhXgX.XA.O.X.! { f.8.d.9.d.B.h v k G.    ",
"    E.N.$ # u [.8.d.a.H.O.Q 3.2.3.B.<XzXxX'.!.i.u.GXHXz.1.r.FX6X;XGX5.q.2.^.HX7.l.W.`.xXzX<X&.O...+.L U w.9.9.1.K.%.h z q }.    ",
"    G.Z.% i $ G.s.a.8.H.O.E +.0.<.>.r.u.F.^.Q.F.] u.JX7X<.~.<XGXAX,X~.5.<.dX^.W y.!.!.l.#.#.^ ^ +.| L U 6.1.8.[ P.a z g }  X    ",
"      E.y y # p [.1.w.H.O.P o.o.^.jXtXQ.u.0.!.r.7.:XcXfX4.4.( dXyX<.5.q.7.dX2X7.u.!.#.l.^.fXjX-X! | J U 6.1.[ g.B.g z h Y.      ",
"      }.C.# y $ !.d.4.t.O.H o.W 2XHXAXqX`.Q.Q.-Xu./.G.XXz.<.2.3.5.2.q.<.G.T.W.u.^.W.^..XyXZXHX-XH ! F L 5.<.[ R.a z l u |.      ",
"        [.r i # p [.[ y.O.F  .~ o.gXhXtXwXcX^._.u.D 0.G.-X7.2.2.2.3.4.O.G.r.S u._.7XzX2XtXzXgXP Q ! G J 2.D h.N.g MXj G.        ",
"        XXZ.# i @ ).j.2.O.G ! ..^ u.0XeXyXSXgXW.<X7.) 0.H.v.( ,.2.4.X.&.y.) #.:X/.zXSXyXeX0X .H U I 7 J ( W R.k z l u  X        ",
"          XXy r r 6 2X1.| 7 ! ~ | R +.!./.^.1X!.0Xz./ | r.(.v.W >.) &.H.X.^ z.>X!._./.Z.W.U H I L J 7 J D E.b.l nXj Y.          ",
"          '.>X@ i @ p 2XS G P I ~ | ^ R ) E o.z.l._.7.E +.P.].v.~ &.E.3.S 0.`.;.l.o.C H H H I L L F 7 , U.S.l mXl %.oX          ",
"            oXb.e i @ C.;X2 I I ! ~ X.....X.R *.W.l.:Xl.B &.}.E.Y.}.t.A l.2Xi.W.*.H ~ Q Q P L L F J - $.OXj z bXa  X            ",
"              aXf r t # $X~.2 P ! ! ~ ..../ ..R #.yX/.u.z.S +.}.}.0.S z.;./.yX#.C ~ Q Q P P L J K ; $..Xk nXnXj |.              ",
"              '.kX% t t # $X;X3 L | ~ | ~ | | ~ o.@.W.2XpXX.S +.3.S o.lX2XW.@.| Q ! ! I P P L J , *.XXb bXz l V.iX              ",
"                eXdX@ r i @ +X3XV C | ! | ~ | | ! T #.pX_./.k.W W k._._.pX#.T ~ ! I I L L U 4 < ^..Xb bXmXl B.aX                ",
"                  sXdX@ r t @ d 6X@.N ! | ! ! | | | T @._.tXpX_ #.pXtX_.#.T | ! ! ! P I L 2 Y 2XS.j bXz l N.aX                  ",
"                    pXdXe t i e f 5X7XT V Q ! ~ | ~  .Q ! @.>XtX_.~.#./ Q ..| ! I  .L V V /.qXb.l mXbXl A.aX                    ",
"                      yXjXf e M.r e +X5X7XE C H ! | ~ | ~ E ^ `.i.R ) ~ ..!  .! H 3 Z z.<XA.b l mXx j .XlX                      ",
"                        qXzXm e t t e t +XdX-X=.E N C H ! | ^ E ~ ..| ~ Q H C C #.-X,XA.M l nXmXl a eXlX                        ",
"                            zX*Xr e M.t # + b.*X,X:X~.k.@.^ ^ E R W ^ @.7.z.1X,X$X+X6 g bXmXx x C.aX                            ",
"                              yXjX+Xt e r o . X % f +X$X<X<X<X-X:X:X<X,X$X+Xd q o . o j bXx m.XXlX                              ",
"                                  pXdX+X% . . X o w X 6 f 6 C.s C.d u C.6 o y o o X . * m..XsX                                  ",
"                                      rXrXA.f + . 6 6 w -.6 p 6 u -.s -.s 6 6 . X a Z.XXoX                                      ",
"                                          |.XXXXA.p 6 y -.$ u + + u % p 6 y u B.|.oX|.                                          ",
"                                                Y.}.|.E.G.B.B.B.B.B.G.G.R.|.}.}.                                                ",
"                                                          R.I.R.R.R.R.                                                          "
};
